<mxfile host="Electron" agent="Mozilla/5.0 (Macintosh; Intel Mac OS X 10_15_7) AppleWebKit/537.36 (KHTML, like Gecko) draw.io/24.7.5 Chrome/126.0.6478.183 Electron/31.3.0 Safari/537.36" version="24.7.5">
  <diagram name="Página-1" id="9H-yyU5gCtoLyBnZUXw_">
    <mxGraphModel dx="1820" dy="1837" grid="1" gridSize="10" guides="1" tooltips="1" connect="1" arrows="1" fold="1" page="1" pageScale="1" pageWidth="827" pageHeight="1169" math="0" shadow="0">
      <root>
        <mxCell id="0" />
        <mxCell id="1" parent="0" />
        <mxCell id="wp8ptao_UwGcVqOm8D7a-1" value="Entidades:&lt;div&gt;Productor basico&lt;/div&gt;&lt;div&gt;Categoria&lt;/div&gt;&lt;div&gt;Hidroelectrica&lt;/div&gt;&lt;div&gt;Solar&lt;/div&gt;&lt;div&gt;Nuclear&lt;/div&gt;&lt;div&gt;Termica&lt;/div&gt;&lt;div&gt;Proveedor (plutonio)&lt;/div&gt;&lt;div&gt;Transportista&lt;/div&gt;&lt;div&gt;Estacion Primaria&lt;/div&gt;&lt;div&gt;Red distribucion&lt;/div&gt;&lt;div&gt;Compañia&lt;/div&gt;&lt;div&gt;Linea&lt;/div&gt;&lt;div&gt;Subestacion&lt;/div&gt;&lt;div&gt;Provincia&lt;/div&gt;&lt;div&gt;Zona de servicio&lt;/div&gt;&lt;div&gt;Consumidor&lt;/div&gt;&lt;div&gt;Particular&lt;/div&gt;&lt;div&gt;Empresa&lt;/div&gt;&lt;div&gt;Institición&lt;/div&gt;" style="text;html=1;align=center;verticalAlign=middle;resizable=0;points=[];autosize=1;strokeColor=none;fillColor=none;" vertex="1" parent="1">
          <mxGeometry x="-130" y="-57" width="130" height="300" as="geometry" />
        </mxCell>
        <mxCell id="wp8ptao_UwGcVqOm8D7a-66" style="edgeStyle=orthogonalEdgeStyle;rounded=0;orthogonalLoop=1;jettySize=auto;html=1;exitX=1;exitY=0.5;exitDx=0;exitDy=0;entryX=0;entryY=0.5;entryDx=0;entryDy=0;endArrow=none;endFill=0;" edge="1" parent="1" source="wp8ptao_UwGcVqOm8D7a-2" target="wp8ptao_UwGcVqOm8D7a-65">
          <mxGeometry relative="1" as="geometry" />
        </mxCell>
        <mxCell id="wp8ptao_UwGcVqOm8D7a-2" value="PRODUCTOR BÁSICO" style="whiteSpace=wrap;html=1;align=center;" vertex="1" parent="1">
          <mxGeometry x="314" y="-70" width="100" height="40" as="geometry" />
        </mxCell>
        <mxCell id="wp8ptao_UwGcVqOm8D7a-3" value="nombre" style="ellipse;whiteSpace=wrap;html=1;align=center;fontStyle=4;" vertex="1" parent="1">
          <mxGeometry x="220" y="-140" width="80" height="40" as="geometry" />
        </mxCell>
        <mxCell id="wp8ptao_UwGcVqOm8D7a-4" value="prodMedia" style="ellipse;whiteSpace=wrap;html=1;align=center;" vertex="1" parent="1">
          <mxGeometry x="230" y="-200" width="100" height="40" as="geometry" />
        </mxCell>
        <mxCell id="wp8ptao_UwGcVqOm8D7a-5" value="prodMáxima" style="ellipse;whiteSpace=wrap;html=1;align=center;" vertex="1" parent="1">
          <mxGeometry x="350" y="-210" width="100" height="40" as="geometry" />
        </mxCell>
        <mxCell id="wp8ptao_UwGcVqOm8D7a-6" value="fechaInicioAct" style="ellipse;whiteSpace=wrap;html=1;align=center;" vertex="1" parent="1">
          <mxGeometry x="440" y="-160" width="100" height="40" as="geometry" />
        </mxCell>
        <mxCell id="wp8ptao_UwGcVqOm8D7a-7" value="" style="endArrow=none;html=1;rounded=0;entryX=1;entryY=0.5;entryDx=0;entryDy=0;exitX=0.25;exitY=0;exitDx=0;exitDy=0;" edge="1" parent="1" source="wp8ptao_UwGcVqOm8D7a-2" target="wp8ptao_UwGcVqOm8D7a-3">
          <mxGeometry width="50" height="50" relative="1" as="geometry">
            <mxPoint x="310" y="-100" as="sourcePoint" />
            <mxPoint x="360" y="-150" as="targetPoint" />
          </mxGeometry>
        </mxCell>
        <mxCell id="wp8ptao_UwGcVqOm8D7a-8" value="" style="endArrow=none;html=1;rounded=0;entryX=1;entryY=1;entryDx=0;entryDy=0;exitX=0.38;exitY=-0.025;exitDx=0;exitDy=0;exitPerimeter=0;" edge="1" parent="1" source="wp8ptao_UwGcVqOm8D7a-2" target="wp8ptao_UwGcVqOm8D7a-4">
          <mxGeometry width="50" height="50" relative="1" as="geometry">
            <mxPoint x="349" y="-60" as="sourcePoint" />
            <mxPoint x="310" y="-110" as="targetPoint" />
          </mxGeometry>
        </mxCell>
        <mxCell id="wp8ptao_UwGcVqOm8D7a-9" value="" style="endArrow=none;html=1;rounded=0;entryX=0.4;entryY=1.05;entryDx=0;entryDy=0;exitX=0.5;exitY=0;exitDx=0;exitDy=0;entryPerimeter=0;" edge="1" parent="1" source="wp8ptao_UwGcVqOm8D7a-2" target="wp8ptao_UwGcVqOm8D7a-5">
          <mxGeometry width="50" height="50" relative="1" as="geometry">
            <mxPoint x="362" y="-61" as="sourcePoint" />
            <mxPoint x="325" y="-156" as="targetPoint" />
          </mxGeometry>
        </mxCell>
        <mxCell id="wp8ptao_UwGcVqOm8D7a-10" value="" style="endArrow=none;html=1;rounded=0;entryX=0.07;entryY=0.675;entryDx=0;entryDy=0;exitX=0.75;exitY=0;exitDx=0;exitDy=0;entryPerimeter=0;" edge="1" parent="1" source="wp8ptao_UwGcVqOm8D7a-2" target="wp8ptao_UwGcVqOm8D7a-6">
          <mxGeometry width="50" height="50" relative="1" as="geometry">
            <mxPoint x="374" y="-60" as="sourcePoint" />
            <mxPoint x="400" y="-158" as="targetPoint" />
          </mxGeometry>
        </mxCell>
        <mxCell id="wp8ptao_UwGcVqOm8D7a-12" style="edgeStyle=orthogonalEdgeStyle;rounded=0;orthogonalLoop=1;jettySize=auto;html=1;exitX=0.5;exitY=0;exitDx=0;exitDy=0;entryX=0.5;entryY=1;entryDx=0;entryDy=0;" edge="1" parent="1" source="wp8ptao_UwGcVqOm8D7a-11" target="wp8ptao_UwGcVqOm8D7a-2">
          <mxGeometry relative="1" as="geometry" />
        </mxCell>
        <mxCell id="wp8ptao_UwGcVqOm8D7a-11" value="Categoría" style="shape=hexagon;perimeter=hexagonPerimeter2;whiteSpace=wrap;html=1;fixedSize=1;" vertex="1" parent="1">
          <mxGeometry x="321" y="80" width="86" height="40" as="geometry" />
        </mxCell>
        <mxCell id="wp8ptao_UwGcVqOm8D7a-23" style="edgeStyle=orthogonalEdgeStyle;rounded=0;orthogonalLoop=1;jettySize=auto;html=1;exitX=0.5;exitY=0;exitDx=0;exitDy=0;entryX=0;entryY=0.5;entryDx=0;entryDy=0;" edge="1" parent="1" source="wp8ptao_UwGcVqOm8D7a-13" target="wp8ptao_UwGcVqOm8D7a-11">
          <mxGeometry relative="1" as="geometry" />
        </mxCell>
        <mxCell id="wp8ptao_UwGcVqOm8D7a-13" value="HIDROELÉCTRICA" style="whiteSpace=wrap;html=1;align=center;" vertex="1" parent="1">
          <mxGeometry x="50" y="240" width="130" height="40" as="geometry" />
        </mxCell>
        <mxCell id="wp8ptao_UwGcVqOm8D7a-24" style="edgeStyle=orthogonalEdgeStyle;rounded=0;orthogonalLoop=1;jettySize=auto;html=1;exitX=0.5;exitY=0;exitDx=0;exitDy=0;" edge="1" parent="1" source="wp8ptao_UwGcVqOm8D7a-14">
          <mxGeometry relative="1" as="geometry">
            <mxPoint x="320" y="100" as="targetPoint" />
            <Array as="points">
              <mxPoint x="290" y="240" />
              <mxPoint x="290" y="100" />
            </Array>
          </mxGeometry>
        </mxCell>
        <mxCell id="wp8ptao_UwGcVqOm8D7a-14" value="SOLAR" style="whiteSpace=wrap;html=1;align=center;" vertex="1" parent="1">
          <mxGeometry x="250" y="240" width="90" height="40" as="geometry" />
        </mxCell>
        <mxCell id="wp8ptao_UwGcVqOm8D7a-25" style="edgeStyle=orthogonalEdgeStyle;rounded=0;orthogonalLoop=1;jettySize=auto;html=1;exitX=0.5;exitY=0;exitDx=0;exitDy=0;entryX=1;entryY=0.5;entryDx=0;entryDy=0;" edge="1" parent="1" source="wp8ptao_UwGcVqOm8D7a-15" target="wp8ptao_UwGcVqOm8D7a-11">
          <mxGeometry relative="1" as="geometry" />
        </mxCell>
        <mxCell id="wp8ptao_UwGcVqOm8D7a-15" value="NUCLEAR" style="whiteSpace=wrap;html=1;align=center;" vertex="1" parent="1">
          <mxGeometry x="510" y="240" width="90" height="40" as="geometry" />
        </mxCell>
        <mxCell id="wp8ptao_UwGcVqOm8D7a-26" style="edgeStyle=orthogonalEdgeStyle;rounded=0;orthogonalLoop=1;jettySize=auto;html=1;exitX=0.5;exitY=0;exitDx=0;exitDy=0;" edge="1" parent="1" source="wp8ptao_UwGcVqOm8D7a-16">
          <mxGeometry relative="1" as="geometry">
            <mxPoint x="410" y="100" as="targetPoint" />
            <Array as="points">
              <mxPoint x="800" y="240" />
              <mxPoint x="800" y="100" />
            </Array>
          </mxGeometry>
        </mxCell>
        <mxCell id="wp8ptao_UwGcVqOm8D7a-16" value="TÉRMICA" style="whiteSpace=wrap;html=1;align=center;" vertex="1" parent="1">
          <mxGeometry x="760" y="240" width="90" height="40" as="geometry" />
        </mxCell>
        <mxCell id="wp8ptao_UwGcVqOm8D7a-17" value="ocupacion" style="ellipse;whiteSpace=wrap;html=1;align=center;" vertex="1" parent="1">
          <mxGeometry x="-70" y="330" width="100" height="40" as="geometry" />
        </mxCell>
        <mxCell id="wp8ptao_UwGcVqOm8D7a-18" value="capMaxima" style="ellipse;whiteSpace=wrap;html=1;align=center;" vertex="1" parent="1">
          <mxGeometry x="-10" y="390" width="100" height="40" as="geometry" />
        </mxCell>
        <mxCell id="wp8ptao_UwGcVqOm8D7a-19" value="nroTurbinas" style="ellipse;whiteSpace=wrap;html=1;align=center;" vertex="1" parent="1">
          <mxGeometry x="80" y="360" width="100" height="40" as="geometry" />
        </mxCell>
        <mxCell id="wp8ptao_UwGcVqOm8D7a-20" value="" style="endArrow=none;html=1;rounded=0;entryX=1;entryY=0;entryDx=0;entryDy=0;exitX=0.25;exitY=1;exitDx=0;exitDy=0;" edge="1" parent="1" source="wp8ptao_UwGcVqOm8D7a-13" target="wp8ptao_UwGcVqOm8D7a-17">
          <mxGeometry width="50" height="50" relative="1" as="geometry">
            <mxPoint x="349" y="-60" as="sourcePoint" />
            <mxPoint x="310" y="-110" as="targetPoint" />
          </mxGeometry>
        </mxCell>
        <mxCell id="wp8ptao_UwGcVqOm8D7a-21" value="" style="endArrow=none;html=1;rounded=0;entryX=0.61;entryY=-0.025;entryDx=0;entryDy=0;exitX=0.415;exitY=1;exitDx=0;exitDy=0;entryPerimeter=0;exitPerimeter=0;" edge="1" parent="1" source="wp8ptao_UwGcVqOm8D7a-13" target="wp8ptao_UwGcVqOm8D7a-18">
          <mxGeometry width="50" height="50" relative="1" as="geometry">
            <mxPoint x="93" y="290" as="sourcePoint" />
            <mxPoint x="25" y="346" as="targetPoint" />
          </mxGeometry>
        </mxCell>
        <mxCell id="wp8ptao_UwGcVqOm8D7a-22" value="" style="endArrow=none;html=1;rounded=0;entryX=0.39;entryY=0;entryDx=0;entryDy=0;exitX=0.577;exitY=1.025;exitDx=0;exitDy=0;entryPerimeter=0;exitPerimeter=0;" edge="1" parent="1" source="wp8ptao_UwGcVqOm8D7a-13" target="wp8ptao_UwGcVqOm8D7a-19">
          <mxGeometry width="50" height="50" relative="1" as="geometry">
            <mxPoint x="114" y="290" as="sourcePoint" />
            <mxPoint x="61" y="399" as="targetPoint" />
          </mxGeometry>
        </mxCell>
        <mxCell id="wp8ptao_UwGcVqOm8D7a-27" value="cantP&lt;span style=&quot;color: rgba(0, 0, 0, 0); font-family: monospace; font-size: 0px; text-align: start; text-wrap: nowrap;&quot;&gt;%3CmxGraphModel%3E%3Croot%3E%3CmxCell%20id%3D%220%22%2F%3E%3CmxCell%20id%3D%221%22%20parent%3D%220%22%2F%3E%3CmxCell%20id%3D%222%22%20value%3D%22ocupacion%22%20style%3D%22ellipse%3BwhiteSpace%3Dwrap%3Bhtml%3D1%3Balign%3Dcenter%3B%22%20vertex%3D%221%22%20parent%3D%221%22%3E%3CmxGeometry%20x%3D%22-70%22%20y%3D%22330%22%20width%3D%22100%22%20height%3D%2240%22%20as%3D%22geometry%22%2F%3E%3C%2FmxCell%3E%3C%2Froot%3E%3C%2FmxGraphModel%3E&lt;/span&gt;aneles&lt;span style=&quot;color: rgba(0, 0, 0, 0); font-family: monospace; font-size: 0px; text-align: start; text-wrap: nowrap;&quot;&gt;%3CmxGraphModel%3E%3Croot%3E%3CmxCell%20id%3D%220%22%2F%3E%3CmxCell%20id%3D%221%22%20parent%3D%220%22%2F%3E%3CmxCell%20id%3D%222%22%20value%3D%22ocupacion%22%20style%3D%22ellipse%3BwhiteSpace%3Dwrap%3Bhtml%3D1%3Balign%3Dcenter%3B%22%20vertex%3D%221%22%20parent%3D%221%22%3E%3CmxGeometry%20x%3D%22-70%22%20y%3D%22330%22%20width%3D%22100%22%20height%3D%2240%22%20as%3D%22geometry%22%2F%3E%3C%2FmxCell%3E%3C%2Froot%3E%3C%2FmxGraphModel%3E&lt;/span&gt;" style="ellipse;whiteSpace=wrap;html=1;align=center;" vertex="1" parent="1">
          <mxGeometry x="170" y="310" width="100" height="40" as="geometry" />
        </mxCell>
        <mxCell id="wp8ptao_UwGcVqOm8D7a-28" value="supPanales" style="ellipse;whiteSpace=wrap;html=1;align=center;" vertex="1" parent="1">
          <mxGeometry x="220" y="370" width="100" height="40" as="geometry" />
        </mxCell>
        <mxCell id="wp8ptao_UwGcVqOm8D7a-29" value="horasSol" style="ellipse;whiteSpace=wrap;html=1;align=center;" vertex="1" parent="1">
          <mxGeometry x="307" y="330" width="100" height="40" as="geometry" />
        </mxCell>
        <mxCell id="wp8ptao_UwGcVqOm8D7a-30" value="" style="endArrow=none;html=1;rounded=0;entryX=0.73;entryY=0.15;entryDx=0;entryDy=0;exitX=0.356;exitY=1.025;exitDx=0;exitDy=0;entryPerimeter=0;exitPerimeter=0;" edge="1" parent="1" source="wp8ptao_UwGcVqOm8D7a-14" target="wp8ptao_UwGcVqOm8D7a-27">
          <mxGeometry width="50" height="50" relative="1" as="geometry">
            <mxPoint x="135" y="291" as="sourcePoint" />
            <mxPoint x="129" y="370" as="targetPoint" />
          </mxGeometry>
        </mxCell>
        <mxCell id="wp8ptao_UwGcVqOm8D7a-31" value="" style="endArrow=none;html=1;rounded=0;entryX=0.62;entryY=-0.075;entryDx=0;entryDy=0;exitX=0.5;exitY=1;exitDx=0;exitDy=0;entryPerimeter=0;" edge="1" parent="1" source="wp8ptao_UwGcVqOm8D7a-14" target="wp8ptao_UwGcVqOm8D7a-28">
          <mxGeometry width="50" height="50" relative="1" as="geometry">
            <mxPoint x="292" y="291" as="sourcePoint" />
            <mxPoint x="253" y="326" as="targetPoint" />
          </mxGeometry>
        </mxCell>
        <mxCell id="wp8ptao_UwGcVqOm8D7a-32" value="" style="endArrow=none;html=1;rounded=0;entryX=0.29;entryY=0.075;entryDx=0;entryDy=0;exitX=0.689;exitY=0.95;exitDx=0;exitDy=0;entryPerimeter=0;exitPerimeter=0;" edge="1" parent="1" source="wp8ptao_UwGcVqOm8D7a-14" target="wp8ptao_UwGcVqOm8D7a-29">
          <mxGeometry width="50" height="50" relative="1" as="geometry">
            <mxPoint x="305" y="290" as="sourcePoint" />
            <mxPoint x="292" y="377" as="targetPoint" />
          </mxGeometry>
        </mxCell>
        <mxCell id="wp8ptao_UwGcVqOm8D7a-33" value="nroReactores" style="ellipse;whiteSpace=wrap;html=1;align=center;" vertex="1" parent="1">
          <mxGeometry x="407" y="290" width="100" height="40" as="geometry" />
        </mxCell>
        <mxCell id="wp8ptao_UwGcVqOm8D7a-34" value="volumenPlutonio" style="ellipse;whiteSpace=wrap;html=1;align=center;" vertex="1" parent="1">
          <mxGeometry x="440" y="350" width="110" height="40" as="geometry" />
        </mxCell>
        <mxCell id="wp8ptao_UwGcVqOm8D7a-35" value="volumenResiduos" style="ellipse;whiteSpace=wrap;html=1;align=center;" vertex="1" parent="1">
          <mxGeometry x="590" y="310" width="110" height="40" as="geometry" />
        </mxCell>
        <mxCell id="wp8ptao_UwGcVqOm8D7a-36" value="" style="endArrow=none;html=1;rounded=0;entryX=0.92;entryY=0.35;entryDx=0;entryDy=0;exitX=0.156;exitY=1.1;exitDx=0;exitDy=0;entryPerimeter=0;exitPerimeter=0;" edge="1" parent="1" source="wp8ptao_UwGcVqOm8D7a-15" target="wp8ptao_UwGcVqOm8D7a-33">
          <mxGeometry width="50" height="50" relative="1" as="geometry">
            <mxPoint x="292" y="291" as="sourcePoint" />
            <mxPoint x="253" y="326" as="targetPoint" />
          </mxGeometry>
        </mxCell>
        <mxCell id="wp8ptao_UwGcVqOm8D7a-37" value="" style="endArrow=none;html=1;rounded=0;entryX=0.682;entryY=0.05;entryDx=0;entryDy=0;exitX=0.367;exitY=0.925;exitDx=0;exitDy=0;entryPerimeter=0;exitPerimeter=0;" edge="1" parent="1" source="wp8ptao_UwGcVqOm8D7a-15" target="wp8ptao_UwGcVqOm8D7a-34">
          <mxGeometry width="50" height="50" relative="1" as="geometry">
            <mxPoint x="534" y="294" as="sourcePoint" />
            <mxPoint x="509" y="314" as="targetPoint" />
          </mxGeometry>
        </mxCell>
        <mxCell id="wp8ptao_UwGcVqOm8D7a-38" value="" style="endArrow=none;html=1;rounded=0;entryX=0.264;entryY=0.05;entryDx=0;entryDy=0;exitX=0.75;exitY=1;exitDx=0;exitDy=0;entryPerimeter=0;" edge="1" parent="1" source="wp8ptao_UwGcVqOm8D7a-15" target="wp8ptao_UwGcVqOm8D7a-35">
          <mxGeometry width="50" height="50" relative="1" as="geometry">
            <mxPoint x="553" y="287" as="sourcePoint" />
            <mxPoint x="525" y="362" as="targetPoint" />
          </mxGeometry>
        </mxCell>
        <mxCell id="wp8ptao_UwGcVqOm8D7a-39" value="nroHornos" style="ellipse;whiteSpace=wrap;html=1;align=center;" vertex="1" parent="1">
          <mxGeometry x="890" y="320" width="90" height="40" as="geometry" />
        </mxCell>
        <mxCell id="wp8ptao_UwGcVqOm8D7a-40" value="volumenCarbon" style="ellipse;whiteSpace=wrap;html=1;align=center;" vertex="1" parent="1">
          <mxGeometry x="840" y="380" width="110" height="40" as="geometry" />
        </mxCell>
        <mxCell id="wp8ptao_UwGcVqOm8D7a-41" value="volumenGases" style="ellipse;whiteSpace=wrap;html=1;align=center;" vertex="1" parent="1">
          <mxGeometry x="710" y="360" width="110" height="40" as="geometry" />
        </mxCell>
        <mxCell id="wp8ptao_UwGcVqOm8D7a-42" value="" style="endArrow=none;html=1;rounded=0;entryX=0.5;entryY=0;entryDx=0;entryDy=0;exitX=0.333;exitY=1.025;exitDx=0;exitDy=0;exitPerimeter=0;" edge="1" parent="1" source="wp8ptao_UwGcVqOm8D7a-16" target="wp8ptao_UwGcVqOm8D7a-41">
          <mxGeometry width="50" height="50" relative="1" as="geometry">
            <mxPoint x="534" y="294" as="sourcePoint" />
            <mxPoint x="509" y="314" as="targetPoint" />
          </mxGeometry>
        </mxCell>
        <mxCell id="wp8ptao_UwGcVqOm8D7a-43" value="" style="endArrow=none;html=1;rounded=0;entryX=0.227;entryY=0.05;entryDx=0;entryDy=0;exitX=0.611;exitY=1.025;exitDx=0;exitDy=0;exitPerimeter=0;entryPerimeter=0;" edge="1" parent="1" source="wp8ptao_UwGcVqOm8D7a-16" target="wp8ptao_UwGcVqOm8D7a-40">
          <mxGeometry width="50" height="50" relative="1" as="geometry">
            <mxPoint x="800" y="291" as="sourcePoint" />
            <mxPoint x="775" y="370" as="targetPoint" />
          </mxGeometry>
        </mxCell>
        <mxCell id="wp8ptao_UwGcVqOm8D7a-44" value="" style="endArrow=none;html=1;rounded=0;exitX=0.844;exitY=1.05;exitDx=0;exitDy=0;exitPerimeter=0;" edge="1" parent="1" source="wp8ptao_UwGcVqOm8D7a-16" target="wp8ptao_UwGcVqOm8D7a-39">
          <mxGeometry width="50" height="50" relative="1" as="geometry">
            <mxPoint x="825" y="291" as="sourcePoint" />
            <mxPoint x="875" y="392" as="targetPoint" />
          </mxGeometry>
        </mxCell>
        <mxCell id="wp8ptao_UwGcVqOm8D7a-46" style="edgeStyle=orthogonalEdgeStyle;rounded=0;orthogonalLoop=1;jettySize=auto;html=1;exitX=0;exitY=0;exitDx=35.715;exitDy=0;exitPerimeter=0;entryX=0.5;entryY=1;entryDx=0;entryDy=0;endArrow=none;endFill=0;" edge="1" parent="1" source="wp8ptao_UwGcVqOm8D7a-45" target="wp8ptao_UwGcVqOm8D7a-15">
          <mxGeometry relative="1" as="geometry" />
        </mxCell>
        <mxCell id="wp8ptao_UwGcVqOm8D7a-50" style="edgeStyle=orthogonalEdgeStyle;rounded=0;orthogonalLoop=1;jettySize=auto;html=1;exitX=1;exitY=1;exitDx=0;exitDy=0;exitPerimeter=0;entryX=0;entryY=0.5;entryDx=0;entryDy=0;endArrow=none;endFill=0;" edge="1" parent="1" source="wp8ptao_UwGcVqOm8D7a-45" target="wp8ptao_UwGcVqOm8D7a-48">
          <mxGeometry relative="1" as="geometry">
            <Array as="points">
              <mxPoint x="640" y="510" />
              <mxPoint x="640" y="510" />
            </Array>
          </mxGeometry>
        </mxCell>
        <mxCell id="wp8ptao_UwGcVqOm8D7a-45" value="Se le provee plutonio" style="verticalLabelPosition=bottom;verticalAlign=top;html=1;shape=mxgraph.basic.acute_triangle;dx=0.5;" vertex="1" parent="1">
          <mxGeometry x="519.28" y="460" width="71.43" height="50" as="geometry" />
        </mxCell>
        <mxCell id="wp8ptao_UwGcVqOm8D7a-47" value="PROVEEDOR" style="whiteSpace=wrap;html=1;align=center;" vertex="1" parent="1">
          <mxGeometry x="300" y="500" width="100" height="40" as="geometry" />
        </mxCell>
        <mxCell id="wp8ptao_UwGcVqOm8D7a-48" value="TRANSPORTISTA" style="whiteSpace=wrap;html=1;align=center;" vertex="1" parent="1">
          <mxGeometry x="730" y="490" width="120" height="40" as="geometry" />
        </mxCell>
        <mxCell id="wp8ptao_UwGcVqOm8D7a-49" style="edgeStyle=orthogonalEdgeStyle;rounded=0;orthogonalLoop=1;jettySize=auto;html=1;exitX=1;exitY=0.5;exitDx=0;exitDy=0;entryX=0;entryY=1;entryDx=0;entryDy=0;entryPerimeter=0;endArrow=none;endFill=0;" edge="1" parent="1" source="wp8ptao_UwGcVqOm8D7a-47" target="wp8ptao_UwGcVqOm8D7a-45">
          <mxGeometry relative="1" as="geometry">
            <Array as="points">
              <mxPoint x="400" y="510" />
            </Array>
          </mxGeometry>
        </mxCell>
        <mxCell id="wp8ptao_UwGcVqOm8D7a-51" value="id" style="ellipse;whiteSpace=wrap;html=1;align=center;fontStyle=4;" vertex="1" parent="1">
          <mxGeometry x="190" y="480" width="60" height="40" as="geometry" />
        </mxCell>
        <mxCell id="wp8ptao_UwGcVqOm8D7a-52" value="nombre" style="ellipse;whiteSpace=wrap;html=1;align=center;" vertex="1" parent="1">
          <mxGeometry x="170" y="540" width="100" height="40" as="geometry" />
        </mxCell>
        <mxCell id="wp8ptao_UwGcVqOm8D7a-53" value="pais" style="ellipse;whiteSpace=wrap;html=1;align=center;" vertex="1" parent="1">
          <mxGeometry x="240" y="600" width="70" height="40" as="geometry" />
        </mxCell>
        <mxCell id="wp8ptao_UwGcVqOm8D7a-54" value="" style="endArrow=none;html=1;rounded=0;entryX=1;entryY=0.5;entryDx=0;entryDy=0;exitX=0;exitY=0.25;exitDx=0;exitDy=0;" edge="1" parent="1" source="wp8ptao_UwGcVqOm8D7a-47" target="wp8ptao_UwGcVqOm8D7a-51">
          <mxGeometry width="50" height="50" relative="1" as="geometry">
            <mxPoint x="305" y="290" as="sourcePoint" />
            <mxPoint x="292" y="377" as="targetPoint" />
          </mxGeometry>
        </mxCell>
        <mxCell id="wp8ptao_UwGcVqOm8D7a-55" value="" style="endArrow=none;html=1;rounded=0;entryX=1;entryY=0;entryDx=0;entryDy=0;exitX=0;exitY=0.5;exitDx=0;exitDy=0;" edge="1" parent="1" source="wp8ptao_UwGcVqOm8D7a-47" target="wp8ptao_UwGcVqOm8D7a-52">
          <mxGeometry width="50" height="50" relative="1" as="geometry">
            <mxPoint x="310" y="520" as="sourcePoint" />
            <mxPoint x="260" y="510" as="targetPoint" />
          </mxGeometry>
        </mxCell>
        <mxCell id="wp8ptao_UwGcVqOm8D7a-56" value="" style="endArrow=none;html=1;rounded=0;entryX=0.743;entryY=0;entryDx=0;entryDy=0;exitX=0.18;exitY=0.95;exitDx=0;exitDy=0;entryPerimeter=0;exitPerimeter=0;" edge="1" parent="1" source="wp8ptao_UwGcVqOm8D7a-47" target="wp8ptao_UwGcVqOm8D7a-53">
          <mxGeometry width="50" height="50" relative="1" as="geometry">
            <mxPoint x="310" y="530" as="sourcePoint" />
            <mxPoint x="265" y="556" as="targetPoint" />
          </mxGeometry>
        </mxCell>
        <mxCell id="wp8ptao_UwGcVqOm8D7a-57" value="nroMatriculaInternacional" style="ellipse;whiteSpace=wrap;html=1;align=center;fontStyle=4;" vertex="1" parent="1">
          <mxGeometry x="620" y="590" width="180" height="40" as="geometry" />
        </mxCell>
        <mxCell id="wp8ptao_UwGcVqOm8D7a-58" value="pais" style="ellipse;whiteSpace=wrap;html=1;align=center;" vertex="1" parent="1">
          <mxGeometry x="827" y="585" width="70" height="40" as="geometry" />
        </mxCell>
        <mxCell id="wp8ptao_UwGcVqOm8D7a-59" value="" style="endArrow=none;html=1;rounded=0;entryX=0.611;entryY=-0.05;entryDx=0;entryDy=0;exitX=0.18;exitY=0.95;exitDx=0;exitDy=0;entryPerimeter=0;exitPerimeter=0;" edge="1" parent="1" target="wp8ptao_UwGcVqOm8D7a-57">
          <mxGeometry width="50" height="50" relative="1" as="geometry">
            <mxPoint x="766" y="530" as="sourcePoint" />
            <mxPoint x="740" y="592" as="targetPoint" />
          </mxGeometry>
        </mxCell>
        <mxCell id="wp8ptao_UwGcVqOm8D7a-60" value="" style="endArrow=none;html=1;rounded=0;entryX=0;entryY=0;entryDx=0;entryDy=0;exitX=0.575;exitY=1;exitDx=0;exitDy=0;exitPerimeter=0;" edge="1" parent="1" source="wp8ptao_UwGcVqOm8D7a-48" target="wp8ptao_UwGcVqOm8D7a-58">
          <mxGeometry width="50" height="50" relative="1" as="geometry">
            <mxPoint x="776" y="540" as="sourcePoint" />
            <mxPoint x="740" y="598" as="targetPoint" />
          </mxGeometry>
        </mxCell>
        <mxCell id="wp8ptao_UwGcVqOm8D7a-61" value="N" style="text;html=1;align=center;verticalAlign=middle;resizable=0;points=[];autosize=1;strokeColor=none;fillColor=none;" vertex="1" parent="1">
          <mxGeometry x="550" y="280" width="30" height="30" as="geometry" />
        </mxCell>
        <mxCell id="wp8ptao_UwGcVqOm8D7a-62" value="1" style="text;html=1;align=center;verticalAlign=middle;resizable=0;points=[];autosize=1;strokeColor=none;fillColor=none;" vertex="1" parent="1">
          <mxGeometry x="700" y="480" width="30" height="30" as="geometry" />
        </mxCell>
        <mxCell id="wp8ptao_UwGcVqOm8D7a-63" value="1" style="text;html=1;align=center;verticalAlign=middle;resizable=0;points=[];autosize=1;strokeColor=none;fillColor=none;" vertex="1" parent="1">
          <mxGeometry x="400" y="480" width="30" height="30" as="geometry" />
        </mxCell>
        <mxCell id="wp8ptao_UwGcVqOm8D7a-82" style="edgeStyle=orthogonalEdgeStyle;rounded=0;orthogonalLoop=1;jettySize=auto;html=1;exitX=0.5;exitY=1;exitDx=0;exitDy=0;entryX=0.5;entryY=0;entryDx=0;entryDy=0;endArrow=none;endFill=0;" edge="1" parent="1" source="wp8ptao_UwGcVqOm8D7a-64" target="wp8ptao_UwGcVqOm8D7a-81">
          <mxGeometry relative="1" as="geometry" />
        </mxCell>
        <mxCell id="wp8ptao_UwGcVqOm8D7a-64" value="ESTACIÓN PRIMARIA" style="whiteSpace=wrap;html=1;align=center;" vertex="1" parent="1">
          <mxGeometry x="1190.5" y="-70" width="100" height="40" as="geometry" />
        </mxCell>
        <mxCell id="wp8ptao_UwGcVqOm8D7a-67" style="edgeStyle=orthogonalEdgeStyle;rounded=0;orthogonalLoop=1;jettySize=auto;html=1;exitX=1;exitY=0.5;exitDx=0;exitDy=0;entryX=0;entryY=0.5;entryDx=0;entryDy=0;endArrow=none;endFill=0;" edge="1" parent="1" source="wp8ptao_UwGcVqOm8D7a-65" target="wp8ptao_UwGcVqOm8D7a-64">
          <mxGeometry relative="1" as="geometry" />
        </mxCell>
        <mxCell id="wp8ptao_UwGcVqOm8D7a-65" value="Entrega produccion a" style="shape=rhombus;perimeter=rhombusPerimeter;whiteSpace=wrap;html=1;align=center;" vertex="1" parent="1">
          <mxGeometry x="750" y="-75" width="100" height="50" as="geometry" />
        </mxCell>
        <mxCell id="wp8ptao_UwGcVqOm8D7a-68" value="N" style="text;html=1;align=center;verticalAlign=middle;resizable=0;points=[];autosize=1;strokeColor=none;fillColor=none;" vertex="1" parent="1">
          <mxGeometry x="1160.5" y="-82" width="30" height="30" as="geometry" />
        </mxCell>
        <mxCell id="wp8ptao_UwGcVqOm8D7a-69" value="1" style="text;html=1;align=center;verticalAlign=middle;resizable=0;points=[];autosize=1;strokeColor=none;fillColor=none;" vertex="1" parent="1">
          <mxGeometry x="415" y="-82" width="30" height="30" as="geometry" />
        </mxCell>
        <mxCell id="wp8ptao_UwGcVqOm8D7a-70" value="totalProducidoDia" style="ellipse;whiteSpace=wrap;html=1;align=center;" vertex="1" parent="1">
          <mxGeometry x="800" y="-160" width="130" height="40" as="geometry" />
        </mxCell>
        <mxCell id="wp8ptao_UwGcVqOm8D7a-71" value="" style="endArrow=none;html=1;rounded=0;entryX=0.423;entryY=1.075;entryDx=0;entryDy=0;exitX=0.713;exitY=0.11;exitDx=0;exitDy=0;entryPerimeter=0;exitPerimeter=0;" edge="1" parent="1" source="wp8ptao_UwGcVqOm8D7a-65" target="wp8ptao_UwGcVqOm8D7a-70">
          <mxGeometry width="50" height="50" relative="1" as="geometry">
            <mxPoint x="399" y="-60" as="sourcePoint" />
            <mxPoint x="457" y="-123" as="targetPoint" />
          </mxGeometry>
        </mxCell>
        <mxCell id="wp8ptao_UwGcVqOm8D7a-72" value="id" style="ellipse;whiteSpace=wrap;html=1;align=center;fontStyle=4;" vertex="1" parent="1">
          <mxGeometry x="1082" y="-140" width="59" height="40" as="geometry" />
        </mxCell>
        <mxCell id="wp8ptao_UwGcVqOm8D7a-73" value="nombre" style="ellipse;whiteSpace=wrap;html=1;align=center;" vertex="1" parent="1">
          <mxGeometry x="1110" y="-200" width="100" height="40" as="geometry" />
        </mxCell>
        <mxCell id="wp8ptao_UwGcVqOm8D7a-74" value="cantTranformadoresBajaTension" style="ellipse;whiteSpace=wrap;html=1;align=center;" vertex="1" parent="1">
          <mxGeometry x="1150" y="-250" width="220" height="40" as="geometry" />
        </mxCell>
        <mxCell id="wp8ptao_UwGcVqOm8D7a-75" value="cantTranformadoresAltaTension" style="ellipse;whiteSpace=wrap;html=1;align=center;" vertex="1" parent="1">
          <mxGeometry x="1290.5" y="-190" width="220" height="40" as="geometry" />
        </mxCell>
        <mxCell id="wp8ptao_UwGcVqOm8D7a-76" value="" style="endArrow=none;html=1;rounded=0;entryX=1;entryY=0.5;entryDx=0;entryDy=0;exitX=0.12;exitY=0.075;exitDx=0;exitDy=0;exitPerimeter=0;" edge="1" parent="1" source="wp8ptao_UwGcVqOm8D7a-64" target="wp8ptao_UwGcVqOm8D7a-72">
          <mxGeometry width="50" height="50" relative="1" as="geometry">
            <mxPoint x="831" y="-59" as="sourcePoint" />
            <mxPoint x="865" y="-107" as="targetPoint" />
          </mxGeometry>
        </mxCell>
        <mxCell id="wp8ptao_UwGcVqOm8D7a-77" value="" style="endArrow=none;html=1;rounded=0;entryX=0.7;entryY=0.981;entryDx=0;entryDy=0;exitX=0.25;exitY=0;exitDx=0;exitDy=0;entryPerimeter=0;" edge="1" parent="1" source="wp8ptao_UwGcVqOm8D7a-64" target="wp8ptao_UwGcVqOm8D7a-73">
          <mxGeometry width="50" height="50" relative="1" as="geometry">
            <mxPoint x="1213" y="-57" as="sourcePoint" />
            <mxPoint x="1151" y="-110" as="targetPoint" />
          </mxGeometry>
        </mxCell>
        <mxCell id="wp8ptao_UwGcVqOm8D7a-78" value="" style="endArrow=none;html=1;rounded=0;entryX=0.5;entryY=1;entryDx=0;entryDy=0;exitX=0.5;exitY=0;exitDx=0;exitDy=0;" edge="1" parent="1" source="wp8ptao_UwGcVqOm8D7a-64" target="wp8ptao_UwGcVqOm8D7a-74">
          <mxGeometry width="50" height="50" relative="1" as="geometry">
            <mxPoint x="1226" y="-60" as="sourcePoint" />
            <mxPoint x="1190" y="-151" as="targetPoint" />
          </mxGeometry>
        </mxCell>
        <mxCell id="wp8ptao_UwGcVqOm8D7a-79" value="" style="endArrow=none;html=1;rounded=0;entryX=0;entryY=1;entryDx=0;entryDy=0;exitX=0.75;exitY=0;exitDx=0;exitDy=0;" edge="1" parent="1" source="wp8ptao_UwGcVqOm8D7a-64" target="wp8ptao_UwGcVqOm8D7a-75">
          <mxGeometry width="50" height="50" relative="1" as="geometry">
            <mxPoint x="1260" y="-70" as="sourcePoint" />
            <mxPoint x="1270" y="-200" as="targetPoint" />
          </mxGeometry>
        </mxCell>
        <mxCell id="wp8ptao_UwGcVqOm8D7a-90" style="edgeStyle=orthogonalEdgeStyle;rounded=0;orthogonalLoop=1;jettySize=auto;html=1;exitX=0.5;exitY=1;exitDx=0;exitDy=0;entryX=0.5;entryY=0;entryDx=0;entryDy=0;endArrow=none;endFill=0;" edge="1" parent="1" source="wp8ptao_UwGcVqOm8D7a-80" target="wp8ptao_UwGcVqOm8D7a-89">
          <mxGeometry relative="1" as="geometry" />
        </mxCell>
        <mxCell id="wp8ptao_UwGcVqOm8D7a-97" style="edgeStyle=orthogonalEdgeStyle;rounded=0;orthogonalLoop=1;jettySize=auto;html=1;exitX=1;exitY=0.5;exitDx=0;exitDy=0;entryX=0.5;entryY=0;entryDx=0;entryDy=0;endArrow=none;endFill=0;" edge="1" parent="1" source="wp8ptao_UwGcVqOm8D7a-80" target="wp8ptao_UwGcVqOm8D7a-96">
          <mxGeometry relative="1" as="geometry">
            <Array as="points">
              <mxPoint x="1295" y="170" />
              <mxPoint x="1384" y="170" />
            </Array>
          </mxGeometry>
        </mxCell>
        <mxCell id="wp8ptao_UwGcVqOm8D7a-80" value="RED DISTRIBUCIÓN" style="whiteSpace=wrap;html=1;align=center;" vertex="1" parent="1">
          <mxGeometry x="1186" y="140" width="109" height="40" as="geometry" />
        </mxCell>
        <mxCell id="wp8ptao_UwGcVqOm8D7a-83" style="edgeStyle=orthogonalEdgeStyle;rounded=0;orthogonalLoop=1;jettySize=auto;html=1;exitX=0.5;exitY=1;exitDx=0;exitDy=0;entryX=0.5;entryY=0;entryDx=0;entryDy=0;endArrow=none;endFill=0;" edge="1" parent="1" source="wp8ptao_UwGcVqOm8D7a-81" target="wp8ptao_UwGcVqOm8D7a-80">
          <mxGeometry relative="1" as="geometry" />
        </mxCell>
        <mxCell id="wp8ptao_UwGcVqOm8D7a-81" value="Es cabecera de" style="shape=rhombus;perimeter=rhombusPerimeter;whiteSpace=wrap;html=1;align=center;" vertex="1" parent="1">
          <mxGeometry x="1201" y="40" width="79" height="40" as="geometry" />
        </mxCell>
        <mxCell id="wp8ptao_UwGcVqOm8D7a-84" value="N" style="text;html=1;align=center;verticalAlign=middle;resizable=0;points=[];autosize=1;strokeColor=none;fillColor=none;" vertex="1" parent="1">
          <mxGeometry x="1241" y="110" width="30" height="30" as="geometry" />
        </mxCell>
        <mxCell id="wp8ptao_UwGcVqOm8D7a-85" value="1" style="text;html=1;align=center;verticalAlign=middle;resizable=0;points=[];autosize=1;strokeColor=none;fillColor=none;" vertex="1" parent="1">
          <mxGeometry x="1241" y="-30" width="30" height="30" as="geometry" />
        </mxCell>
        <mxCell id="wp8ptao_UwGcVqOm8D7a-86" value="nro" style="ellipse;whiteSpace=wrap;html=1;align=center;fontStyle=4;" vertex="1" parent="1">
          <mxGeometry x="1070" y="140" width="59" height="40" as="geometry" />
        </mxCell>
        <mxCell id="wp8ptao_UwGcVqOm8D7a-87" value="" style="endArrow=none;html=1;rounded=0;entryX=1;entryY=0.5;entryDx=0;entryDy=0;exitX=0;exitY=0.5;exitDx=0;exitDy=0;" edge="1" parent="1" source="wp8ptao_UwGcVqOm8D7a-80" target="wp8ptao_UwGcVqOm8D7a-86">
          <mxGeometry width="50" height="50" relative="1" as="geometry">
            <mxPoint x="1213" y="-57" as="sourcePoint" />
            <mxPoint x="1151" y="-110" as="targetPoint" />
          </mxGeometry>
        </mxCell>
        <mxCell id="wp8ptao_UwGcVqOm8D7a-88" value="COMPAÑÍA ELÉCTRICA" style="whiteSpace=wrap;html=1;align=center;" vertex="1" parent="1">
          <mxGeometry x="1186" y="370" width="109" height="40" as="geometry" />
        </mxCell>
        <mxCell id="wp8ptao_UwGcVqOm8D7a-91" style="edgeStyle=orthogonalEdgeStyle;rounded=0;orthogonalLoop=1;jettySize=auto;html=1;exitX=0.5;exitY=1;exitDx=0;exitDy=0;entryX=0.5;entryY=0;entryDx=0;entryDy=0;endArrow=none;endFill=0;" edge="1" parent="1" source="wp8ptao_UwGcVqOm8D7a-89" target="wp8ptao_UwGcVqOm8D7a-88">
          <mxGeometry relative="1" as="geometry" />
        </mxCell>
        <mxCell id="wp8ptao_UwGcVqOm8D7a-89" value="Es propiedad de" style="shape=rhombus;perimeter=rhombusPerimeter;whiteSpace=wrap;html=1;align=center;" vertex="1" parent="1">
          <mxGeometry x="1201" y="260" width="79" height="40" as="geometry" />
        </mxCell>
        <mxCell id="wp8ptao_UwGcVqOm8D7a-92" value="nombre" style="ellipse;whiteSpace=wrap;html=1;align=center;fontStyle=4;" vertex="1" parent="1">
          <mxGeometry x="1059" y="370" width="70" height="40" as="geometry" />
        </mxCell>
        <mxCell id="wp8ptao_UwGcVqOm8D7a-93" value="" style="endArrow=none;html=1;rounded=0;entryX=1;entryY=0.5;entryDx=0;entryDy=0;exitX=0;exitY=0.5;exitDx=0;exitDy=0;" edge="1" parent="1" source="wp8ptao_UwGcVqOm8D7a-88" target="wp8ptao_UwGcVqOm8D7a-92">
          <mxGeometry width="50" height="50" relative="1" as="geometry">
            <mxPoint x="1196" y="170" as="sourcePoint" />
            <mxPoint x="1139" y="170" as="targetPoint" />
          </mxGeometry>
        </mxCell>
        <mxCell id="wp8ptao_UwGcVqOm8D7a-94" value="N" style="text;html=1;align=center;verticalAlign=middle;resizable=0;points=[];autosize=1;strokeColor=none;fillColor=none;" vertex="1" parent="1">
          <mxGeometry x="1211" y="340" width="30" height="30" as="geometry" />
        </mxCell>
        <mxCell id="wp8ptao_UwGcVqOm8D7a-95" value="N" style="text;html=1;align=center;verticalAlign=middle;resizable=0;points=[];autosize=1;strokeColor=none;fillColor=none;" vertex="1" parent="1">
          <mxGeometry x="1210" y="180" width="30" height="30" as="geometry" />
        </mxCell>
        <mxCell id="wp8ptao_UwGcVqOm8D7a-96" value="Envía energía sobrante" style="shape=rhombus;perimeter=rhombusPerimeter;whiteSpace=wrap;html=1;align=center;" vertex="1" parent="1">
          <mxGeometry x="1341" y="200" width="86" height="43" as="geometry" />
        </mxCell>
        <mxCell id="wp8ptao_UwGcVqOm8D7a-98" style="edgeStyle=orthogonalEdgeStyle;rounded=0;orthogonalLoop=1;jettySize=auto;html=1;exitX=0;exitY=0.5;exitDx=0;exitDy=0;entryX=0.931;entryY=1.075;entryDx=0;entryDy=0;entryPerimeter=0;endArrow=none;endFill=0;" edge="1" parent="1" source="wp8ptao_UwGcVqOm8D7a-96" target="wp8ptao_UwGcVqOm8D7a-80">
          <mxGeometry relative="1" as="geometry" />
        </mxCell>
        <mxCell id="wp8ptao_UwGcVqOm8D7a-99" value="N" style="text;html=1;align=center;verticalAlign=middle;resizable=0;points=[];autosize=1;strokeColor=none;fillColor=none;" vertex="1" parent="1">
          <mxGeometry x="1290.5" y="170" width="30" height="30" as="geometry" />
        </mxCell>
        <mxCell id="wp8ptao_UwGcVqOm8D7a-100" value="N" style="text;html=1;align=center;verticalAlign=middle;resizable=0;points=[];autosize=1;strokeColor=none;fillColor=none;" vertex="1" parent="1">
          <mxGeometry x="1260.5" y="180" width="30" height="30" as="geometry" />
        </mxCell>
        <mxCell id="wp8ptao_UwGcVqOm8D7a-101" value="volumen" style="ellipse;whiteSpace=wrap;html=1;align=center;" vertex="1" parent="1">
          <mxGeometry x="1440" y="170" width="83" height="40" as="geometry" />
        </mxCell>
        <mxCell id="wp8ptao_UwGcVqOm8D7a-102" value="" style="endArrow=none;html=1;rounded=0;entryX=1;entryY=0;entryDx=0;entryDy=0;exitX=0.06;exitY=0.75;exitDx=0;exitDy=0;exitPerimeter=0;" edge="1" parent="1" source="wp8ptao_UwGcVqOm8D7a-101" target="wp8ptao_UwGcVqOm8D7a-96">
          <mxGeometry width="50" height="50" relative="1" as="geometry">
            <mxPoint x="1196" y="170" as="sourcePoint" />
            <mxPoint x="1139" y="170" as="targetPoint" />
          </mxGeometry>
        </mxCell>
        <mxCell id="wp8ptao_UwGcVqOm8D7a-103" value="fecha" style="ellipse;whiteSpace=wrap;html=1;align=center;fontStyle=4;" vertex="1" parent="1">
          <mxGeometry x="1464" y="220" width="59" height="40" as="geometry" />
        </mxCell>
        <mxCell id="wp8ptao_UwGcVqOm8D7a-104" value="" style="endArrow=none;html=1;rounded=0;entryX=0.846;entryY=0.709;entryDx=0;entryDy=0;exitX=0;exitY=0.5;exitDx=0;exitDy=0;entryPerimeter=0;" edge="1" parent="1" source="wp8ptao_UwGcVqOm8D7a-103" target="wp8ptao_UwGcVqOm8D7a-96">
          <mxGeometry width="50" height="50" relative="1" as="geometry">
            <mxPoint x="1455" y="198" as="sourcePoint" />
            <mxPoint x="1416" y="221" as="targetPoint" />
          </mxGeometry>
        </mxCell>
        <mxCell id="wp8ptao_UwGcVqOm8D7a-119" style="edgeStyle=orthogonalEdgeStyle;rounded=0;orthogonalLoop=1;jettySize=auto;html=1;exitX=0.5;exitY=1;exitDx=0;exitDy=0;entryX=0.5;entryY=0;entryDx=0;entryDy=0;endArrow=none;endFill=0;" edge="1" parent="1" source="wp8ptao_UwGcVqOm8D7a-106" target="wp8ptao_UwGcVqOm8D7a-118">
          <mxGeometry relative="1" as="geometry" />
        </mxCell>
        <mxCell id="wp8ptao_UwGcVqOm8D7a-106" value="LINEA" style="shape=ext;margin=3;double=1;whiteSpace=wrap;html=1;align=center;" vertex="1" parent="1">
          <mxGeometry x="1810" y="140" width="100" height="40" as="geometry" />
        </mxCell>
        <mxCell id="wp8ptao_UwGcVqOm8D7a-108" style="edgeStyle=orthogonalEdgeStyle;rounded=0;orthogonalLoop=1;jettySize=auto;html=1;exitX=0;exitY=0.5;exitDx=0;exitDy=0;entryX=1;entryY=0.5;entryDx=0;entryDy=0;endArrow=none;endFill=0;" edge="1" parent="1" target="wp8ptao_UwGcVqOm8D7a-80">
          <mxGeometry relative="1" as="geometry">
            <mxPoint x="1560" y="160" as="sourcePoint" />
          </mxGeometry>
        </mxCell>
        <mxCell id="wp8ptao_UwGcVqOm8D7a-109" style="edgeStyle=orthogonalEdgeStyle;rounded=0;orthogonalLoop=1;jettySize=auto;html=1;exitX=1;exitY=0.5;exitDx=0;exitDy=0;entryX=0;entryY=0.5;entryDx=0;entryDy=0;endArrow=none;endFill=0;shape=link;" edge="1" parent="1" target="wp8ptao_UwGcVqOm8D7a-106">
          <mxGeometry relative="1" as="geometry">
            <mxPoint x="1640" y="160" as="sourcePoint" />
          </mxGeometry>
        </mxCell>
        <mxCell id="wp8ptao_UwGcVqOm8D7a-110" value="1" style="text;html=1;align=center;verticalAlign=middle;resizable=0;points=[];autosize=1;strokeColor=none;fillColor=none;" vertex="1" parent="1">
          <mxGeometry x="1295" y="128" width="30" height="30" as="geometry" />
        </mxCell>
        <mxCell id="wp8ptao_UwGcVqOm8D7a-111" value="N" style="text;html=1;align=center;verticalAlign=middle;resizable=0;points=[];autosize=1;strokeColor=none;fillColor=none;" vertex="1" parent="1">
          <mxGeometry x="1780" y="128" width="30" height="30" as="geometry" />
        </mxCell>
        <mxCell id="wp8ptao_UwGcVqOm8D7a-113" value="&lt;span style=&quot;border-bottom: 1px dotted&quot;&gt;nro&lt;/span&gt;" style="ellipse;whiteSpace=wrap;html=1;align=center;" vertex="1" parent="1">
          <mxGeometry x="1730" y="73" width="60" height="40" as="geometry" />
        </mxCell>
        <mxCell id="wp8ptao_UwGcVqOm8D7a-114" value="longitud" style="ellipse;whiteSpace=wrap;html=1;align=center;" vertex="1" parent="1">
          <mxGeometry x="1810" y="70" width="100" height="40" as="geometry" />
        </mxCell>
        <mxCell id="wp8ptao_UwGcVqOm8D7a-115" value="" style="endArrow=none;html=1;rounded=0;entryX=0.25;entryY=0;entryDx=0;entryDy=0;exitX=1;exitY=1;exitDx=0;exitDy=0;" edge="1" parent="1" source="wp8ptao_UwGcVqOm8D7a-113" target="wp8ptao_UwGcVqOm8D7a-106">
          <mxGeometry width="50" height="50" relative="1" as="geometry">
            <mxPoint x="1455" y="210" as="sourcePoint" />
            <mxPoint x="1416" y="221" as="targetPoint" />
          </mxGeometry>
        </mxCell>
        <mxCell id="wp8ptao_UwGcVqOm8D7a-116" value="" style="endArrow=none;html=1;rounded=0;" edge="1" parent="1" source="wp8ptao_UwGcVqOm8D7a-114">
          <mxGeometry width="50" height="50" relative="1" as="geometry">
            <mxPoint x="1791" y="117" as="sourcePoint" />
            <mxPoint x="1850" y="140" as="targetPoint" />
          </mxGeometry>
        </mxCell>
        <mxCell id="wp8ptao_UwGcVqOm8D7a-128" style="edgeStyle=orthogonalEdgeStyle;rounded=0;orthogonalLoop=1;jettySize=auto;html=1;exitX=0.5;exitY=1;exitDx=0;exitDy=0;entryX=0.5;entryY=0;entryDx=0;entryDy=0;endArrow=none;endFill=0;" edge="1" parent="1" source="wp8ptao_UwGcVqOm8D7a-117" target="wp8ptao_UwGcVqOm8D7a-126">
          <mxGeometry relative="1" as="geometry" />
        </mxCell>
        <mxCell id="wp8ptao_UwGcVqOm8D7a-117" value="SUBESTACIÓN" style="whiteSpace=wrap;html=1;align=center;" vertex="1" parent="1">
          <mxGeometry x="1805.5" y="360" width="109" height="40" as="geometry" />
        </mxCell>
        <mxCell id="wp8ptao_UwGcVqOm8D7a-120" style="edgeStyle=orthogonalEdgeStyle;rounded=0;orthogonalLoop=1;jettySize=auto;html=1;exitX=0.5;exitY=1;exitDx=0;exitDy=0;entryX=0.5;entryY=0;entryDx=0;entryDy=0;endArrow=none;endFill=0;" edge="1" parent="1" source="wp8ptao_UwGcVqOm8D7a-118" target="wp8ptao_UwGcVqOm8D7a-117">
          <mxGeometry relative="1" as="geometry" />
        </mxCell>
        <mxCell id="wp8ptao_UwGcVqOm8D7a-118" value="Abastece a" style="shape=rhombus;perimeter=rhombusPerimeter;whiteSpace=wrap;html=1;align=center;" vertex="1" parent="1">
          <mxGeometry x="1820" y="250" width="80" height="40" as="geometry" />
        </mxCell>
        <mxCell id="wp8ptao_UwGcVqOm8D7a-121" value="1" style="text;html=1;align=center;verticalAlign=middle;resizable=0;points=[];autosize=1;strokeColor=none;fillColor=none;" vertex="1" parent="1">
          <mxGeometry x="1855" y="178" width="30" height="30" as="geometry" />
        </mxCell>
        <mxCell id="wp8ptao_UwGcVqOm8D7a-122" value="N" style="text;html=1;align=center;verticalAlign=middle;resizable=0;points=[];autosize=1;strokeColor=none;fillColor=none;rotation=90;" vertex="1" parent="1">
          <mxGeometry x="1855" y="328" width="30" height="30" as="geometry" />
        </mxCell>
        <mxCell id="wp8ptao_UwGcVqOm8D7a-123" value="id" style="ellipse;whiteSpace=wrap;html=1;align=center;fontStyle=4;" vertex="1" parent="1">
          <mxGeometry x="1710" y="360" width="59" height="40" as="geometry" />
        </mxCell>
        <mxCell id="wp8ptao_UwGcVqOm8D7a-124" value="" style="endArrow=none;html=1;rounded=0;entryX=1;entryY=0.5;entryDx=0;entryDy=0;exitX=0;exitY=0.5;exitDx=0;exitDy=0;" edge="1" parent="1" source="wp8ptao_UwGcVqOm8D7a-117" target="wp8ptao_UwGcVqOm8D7a-123">
          <mxGeometry width="50" height="50" relative="1" as="geometry">
            <mxPoint x="1474" y="250" as="sourcePoint" />
            <mxPoint x="1424" y="240" as="targetPoint" />
          </mxGeometry>
        </mxCell>
        <mxCell id="wp8ptao_UwGcVqOm8D7a-147" style="edgeStyle=orthogonalEdgeStyle;rounded=0;orthogonalLoop=1;jettySize=auto;html=1;exitX=0.5;exitY=1;exitDx=0;exitDy=0;entryX=0.5;entryY=0;entryDx=0;entryDy=0;endArrow=none;endFill=0;" edge="1" parent="1" source="wp8ptao_UwGcVqOm8D7a-125" target="wp8ptao_UwGcVqOm8D7a-146">
          <mxGeometry relative="1" as="geometry" />
        </mxCell>
        <mxCell id="wp8ptao_UwGcVqOm8D7a-125" value="ZONA DE SERVICIO" style="whiteSpace=wrap;html=1;align=center;" vertex="1" parent="1">
          <mxGeometry x="1805.5" y="565" width="109" height="40" as="geometry" />
        </mxCell>
        <mxCell id="wp8ptao_UwGcVqOm8D7a-129" style="edgeStyle=orthogonalEdgeStyle;rounded=0;orthogonalLoop=1;jettySize=auto;html=1;exitX=0.5;exitY=1;exitDx=0;exitDy=0;entryX=0.5;entryY=0;entryDx=0;entryDy=0;endArrow=none;endFill=0;" edge="1" parent="1" source="wp8ptao_UwGcVqOm8D7a-126" target="wp8ptao_UwGcVqOm8D7a-125">
          <mxGeometry relative="1" as="geometry" />
        </mxCell>
        <mxCell id="wp8ptao_UwGcVqOm8D7a-126" value="Abastece a" style="shape=rhombus;perimeter=rhombusPerimeter;whiteSpace=wrap;html=1;align=center;" vertex="1" parent="1">
          <mxGeometry x="1820" y="465" width="80" height="40" as="geometry" />
        </mxCell>
        <mxCell id="wp8ptao_UwGcVqOm8D7a-127" value="Compuesta por" style="shape=rhombus;double=1;perimeter=rhombusPerimeter;whiteSpace=wrap;html=1;align=center;" vertex="1" parent="1">
          <mxGeometry x="1560" y="130" width="100" height="58" as="geometry" />
        </mxCell>
        <mxCell id="wp8ptao_UwGcVqOm8D7a-130" value="N" style="text;html=1;align=center;verticalAlign=middle;resizable=0;points=[];autosize=1;strokeColor=none;fillColor=none;" vertex="1" parent="1">
          <mxGeometry x="1855" y="398" width="30" height="30" as="geometry" />
        </mxCell>
        <mxCell id="wp8ptao_UwGcVqOm8D7a-131" value="N" style="text;html=1;align=center;verticalAlign=middle;resizable=0;points=[];autosize=1;strokeColor=none;fillColor=none;" vertex="1" parent="1">
          <mxGeometry x="1855" y="538" width="30" height="30" as="geometry" />
        </mxCell>
        <mxCell id="wp8ptao_UwGcVqOm8D7a-132" value="id" style="ellipse;whiteSpace=wrap;html=1;align=center;fontStyle=4;" vertex="1" parent="1">
          <mxGeometry x="1950" y="520" width="59" height="40" as="geometry" />
        </mxCell>
        <mxCell id="wp8ptao_UwGcVqOm8D7a-133" value="" style="endArrow=none;html=1;rounded=0;entryX=1;entryY=0.25;entryDx=0;entryDy=0;exitX=0;exitY=1;exitDx=0;exitDy=0;" edge="1" parent="1" source="wp8ptao_UwGcVqOm8D7a-132" target="wp8ptao_UwGcVqOm8D7a-125">
          <mxGeometry width="50" height="50" relative="1" as="geometry">
            <mxPoint x="1816" y="390" as="sourcePoint" />
            <mxPoint x="1779" y="390" as="targetPoint" />
          </mxGeometry>
        </mxCell>
        <mxCell id="wp8ptao_UwGcVqOm8D7a-140" style="edgeStyle=orthogonalEdgeStyle;rounded=0;orthogonalLoop=1;jettySize=auto;html=1;exitX=1;exitY=0.5;exitDx=0;exitDy=0;entryX=0;entryY=0.5;entryDx=0;entryDy=0;endArrow=none;endFill=0;" edge="1" parent="1" source="wp8ptao_UwGcVqOm8D7a-134" target="wp8ptao_UwGcVqOm8D7a-139">
          <mxGeometry relative="1" as="geometry" />
        </mxCell>
        <mxCell id="wp8ptao_UwGcVqOm8D7a-134" value="PROVINCIA" style="whiteSpace=wrap;html=1;align=center;" vertex="1" parent="1">
          <mxGeometry x="1320.5" y="565" width="109" height="40" as="geometry" />
        </mxCell>
        <mxCell id="wp8ptao_UwGcVqOm8D7a-135" value="código" style="ellipse;whiteSpace=wrap;html=1;align=center;fontStyle=4;" vertex="1" parent="1">
          <mxGeometry x="1260.5" y="653" width="100" height="40" as="geometry" />
        </mxCell>
        <mxCell id="wp8ptao_UwGcVqOm8D7a-136" value="nombre" style="ellipse;whiteSpace=wrap;html=1;align=center;" vertex="1" parent="1">
          <mxGeometry x="1399.5" y="653" width="100" height="40" as="geometry" />
        </mxCell>
        <mxCell id="wp8ptao_UwGcVqOm8D7a-137" value="" style="endArrow=none;html=1;rounded=0;entryX=0.69;entryY=0.044;entryDx=0;entryDy=0;exitX=0.5;exitY=1;exitDx=0;exitDy=0;entryPerimeter=0;" edge="1" parent="1" source="wp8ptao_UwGcVqOm8D7a-134" target="wp8ptao_UwGcVqOm8D7a-135">
          <mxGeometry width="50" height="50" relative="1" as="geometry">
            <mxPoint x="1968.5" y="567" as="sourcePoint" />
            <mxPoint x="1923.5" y="588" as="targetPoint" />
          </mxGeometry>
        </mxCell>
        <mxCell id="wp8ptao_UwGcVqOm8D7a-138" value="" style="endArrow=none;html=1;rounded=0;entryX=0.238;entryY=0.075;entryDx=0;entryDy=0;exitX=0.672;exitY=0.95;exitDx=0;exitDy=0;entryPerimeter=0;exitPerimeter=0;" edge="1" parent="1" source="wp8ptao_UwGcVqOm8D7a-134" target="wp8ptao_UwGcVqOm8D7a-136">
          <mxGeometry width="50" height="50" relative="1" as="geometry">
            <mxPoint x="1384.5" y="618" as="sourcePoint" />
            <mxPoint x="1339.5" y="665" as="targetPoint" />
          </mxGeometry>
        </mxCell>
        <mxCell id="wp8ptao_UwGcVqOm8D7a-141" style="edgeStyle=orthogonalEdgeStyle;rounded=0;orthogonalLoop=1;jettySize=auto;html=1;exitX=1;exitY=0.5;exitDx=0;exitDy=0;entryX=0;entryY=0.5;entryDx=0;entryDy=0;endArrow=none;endFill=0;" edge="1" parent="1" source="wp8ptao_UwGcVqOm8D7a-139" target="wp8ptao_UwGcVqOm8D7a-125">
          <mxGeometry relative="1" as="geometry" />
        </mxCell>
        <mxCell id="wp8ptao_UwGcVqOm8D7a-139" value="Se divide en" style="shape=rhombus;perimeter=rhombusPerimeter;whiteSpace=wrap;html=1;align=center;" vertex="1" parent="1">
          <mxGeometry x="1560" y="555" width="120" height="60" as="geometry" />
        </mxCell>
        <mxCell id="wp8ptao_UwGcVqOm8D7a-142" value="N" style="text;html=1;align=center;verticalAlign=middle;resizable=0;points=[];autosize=1;strokeColor=none;fillColor=none;" vertex="1" parent="1">
          <mxGeometry x="1775" y="558" width="30" height="30" as="geometry" />
        </mxCell>
        <mxCell id="wp8ptao_UwGcVqOm8D7a-143" value="1" style="text;html=1;align=center;verticalAlign=middle;resizable=0;points=[];autosize=1;strokeColor=none;fillColor=none;" vertex="1" parent="1">
          <mxGeometry x="1429.5" y="555" width="30" height="30" as="geometry" />
        </mxCell>
        <mxCell id="wp8ptao_UwGcVqOm8D7a-144" value="consumoMedio" style="ellipse;whiteSpace=wrap;html=1;align=center;" vertex="1" parent="1">
          <mxGeometry x="1960" y="590" width="100" height="40" as="geometry" />
        </mxCell>
        <mxCell id="wp8ptao_UwGcVqOm8D7a-145" value="" style="endArrow=none;html=1;rounded=0;entryX=1;entryY=0.5;entryDx=0;entryDy=0;exitX=0;exitY=0.5;exitDx=0;exitDy=0;" edge="1" parent="1" source="wp8ptao_UwGcVqOm8D7a-144" target="wp8ptao_UwGcVqOm8D7a-125">
          <mxGeometry width="50" height="50" relative="1" as="geometry">
            <mxPoint x="1969" y="564" as="sourcePoint" />
            <mxPoint x="1924" y="585" as="targetPoint" />
          </mxGeometry>
        </mxCell>
        <mxCell id="wp8ptao_UwGcVqOm8D7a-150" style="edgeStyle=orthogonalEdgeStyle;rounded=0;orthogonalLoop=1;jettySize=auto;html=1;exitX=0.5;exitY=1;exitDx=0;exitDy=0;entryX=0.5;entryY=0;entryDx=0;entryDy=0;endArrow=none;endFill=0;" edge="1" parent="1" source="wp8ptao_UwGcVqOm8D7a-146" target="wp8ptao_UwGcVqOm8D7a-148">
          <mxGeometry relative="1" as="geometry" />
        </mxCell>
        <mxCell id="wp8ptao_UwGcVqOm8D7a-146" value="Sirve a" style="shape=rhombus;perimeter=rhombusPerimeter;whiteSpace=wrap;html=1;align=center;" vertex="1" parent="1">
          <mxGeometry x="1820" y="670" width="80" height="40" as="geometry" />
        </mxCell>
        <mxCell id="wp8ptao_UwGcVqOm8D7a-163" style="edgeStyle=orthogonalEdgeStyle;rounded=0;orthogonalLoop=1;jettySize=auto;html=1;exitX=0.5;exitY=1;exitDx=0;exitDy=0;entryX=0.5;entryY=0;entryDx=0;entryDy=0;endArrow=none;endFill=0;" edge="1" parent="1" source="wp8ptao_UwGcVqOm8D7a-148" target="wp8ptao_UwGcVqOm8D7a-158">
          <mxGeometry relative="1" as="geometry" />
        </mxCell>
        <mxCell id="wp8ptao_UwGcVqOm8D7a-148" value="CONSUMIDOR FINAL" style="whiteSpace=wrap;html=1;align=center;" vertex="1" parent="1">
          <mxGeometry x="1805.5" y="780" width="109" height="40" as="geometry" />
        </mxCell>
        <mxCell id="wp8ptao_UwGcVqOm8D7a-151" value="nroCliente" style="ellipse;whiteSpace=wrap;html=1;align=center;fontStyle=4;" vertex="1" parent="1">
          <mxGeometry x="1660" y="780" width="100" height="40" as="geometry" />
        </mxCell>
        <mxCell id="wp8ptao_UwGcVqOm8D7a-154" value="" style="endArrow=none;html=1;rounded=0;entryX=1;entryY=0.5;entryDx=0;entryDy=0;exitX=0;exitY=0.5;exitDx=0;exitDy=0;" edge="1" parent="1" source="wp8ptao_UwGcVqOm8D7a-148" target="wp8ptao_UwGcVqOm8D7a-151">
          <mxGeometry width="50" height="50" relative="1" as="geometry">
            <mxPoint x="1970" y="620" as="sourcePoint" />
            <mxPoint x="1924" y="595" as="targetPoint" />
          </mxGeometry>
        </mxCell>
        <mxCell id="wp8ptao_UwGcVqOm8D7a-155" value="1" style="text;html=1;align=center;verticalAlign=middle;resizable=0;points=[];autosize=1;strokeColor=none;fillColor=none;" vertex="1" parent="1">
          <mxGeometry x="1855" y="605" width="30" height="30" as="geometry" />
        </mxCell>
        <mxCell id="wp8ptao_UwGcVqOm8D7a-156" value="N" style="text;html=1;align=center;verticalAlign=middle;resizable=0;points=[];autosize=1;strokeColor=none;fillColor=none;" vertex="1" parent="1">
          <mxGeometry x="1865" y="750" width="30" height="30" as="geometry" />
        </mxCell>
        <mxCell id="wp8ptao_UwGcVqOm8D7a-157" value="CATEGORÍA" style="whiteSpace=wrap;html=1;align=center;" vertex="1" parent="1">
          <mxGeometry x="1805.5" y="930" width="109" height="40" as="geometry" />
        </mxCell>
        <mxCell id="wp8ptao_UwGcVqOm8D7a-164" style="edgeStyle=orthogonalEdgeStyle;rounded=0;orthogonalLoop=1;jettySize=auto;html=1;exitX=0.5;exitY=1;exitDx=0;exitDy=0;entryX=0.5;entryY=0;entryDx=0;entryDy=0;endArrow=none;endFill=0;" edge="1" parent="1" source="wp8ptao_UwGcVqOm8D7a-158" target="wp8ptao_UwGcVqOm8D7a-157">
          <mxGeometry relative="1" as="geometry" />
        </mxCell>
        <mxCell id="wp8ptao_UwGcVqOm8D7a-158" value="Tiene" style="shape=rhombus;perimeter=rhombusPerimeter;whiteSpace=wrap;html=1;align=center;" vertex="1" parent="1">
          <mxGeometry x="1820" y="850" width="80" height="40" as="geometry" />
        </mxCell>
        <mxCell id="wp8ptao_UwGcVqOm8D7a-159" value="id" style="ellipse;whiteSpace=wrap;html=1;align=center;fontStyle=4;" vertex="1" parent="1">
          <mxGeometry x="1769" y="1020" width="71" height="40" as="geometry" />
        </mxCell>
        <mxCell id="wp8ptao_UwGcVqOm8D7a-160" value="descripcion" style="ellipse;whiteSpace=wrap;html=1;align=center;" vertex="1" parent="1">
          <mxGeometry x="1885" y="1020" width="100" height="40" as="geometry" />
        </mxCell>
        <mxCell id="wp8ptao_UwGcVqOm8D7a-161" value="" style="endArrow=none;html=1;rounded=0;entryX=0.718;entryY=-0.05;entryDx=0;entryDy=0;exitX=0.431;exitY=1.044;exitDx=0;exitDy=0;entryPerimeter=0;exitPerimeter=0;" edge="1" parent="1" source="wp8ptao_UwGcVqOm8D7a-157" target="wp8ptao_UwGcVqOm8D7a-159">
          <mxGeometry width="50" height="50" relative="1" as="geometry">
            <mxPoint x="1816" y="810" as="sourcePoint" />
            <mxPoint x="1770" y="810" as="targetPoint" />
          </mxGeometry>
        </mxCell>
        <mxCell id="wp8ptao_UwGcVqOm8D7a-162" value="" style="endArrow=none;html=1;rounded=0;entryX=0.35;entryY=0.106;entryDx=0;entryDy=0;exitX=0.649;exitY=0.981;exitDx=0;exitDy=0;entryPerimeter=0;exitPerimeter=0;" edge="1" parent="1" source="wp8ptao_UwGcVqOm8D7a-157" target="wp8ptao_UwGcVqOm8D7a-160">
          <mxGeometry width="50" height="50" relative="1" as="geometry">
            <mxPoint x="1862" y="982" as="sourcePoint" />
            <mxPoint x="1830" y="1028" as="targetPoint" />
          </mxGeometry>
        </mxCell>
        <mxCell id="wp8ptao_UwGcVqOm8D7a-165" value="1" style="text;html=1;align=center;verticalAlign=middle;resizable=0;points=[];autosize=1;strokeColor=none;fillColor=none;" vertex="1" parent="1">
          <mxGeometry x="1855" y="898" width="30" height="30" as="geometry" />
        </mxCell>
        <mxCell id="wp8ptao_UwGcVqOm8D7a-166" value="N" style="text;html=1;align=center;verticalAlign=middle;resizable=0;points=[];autosize=1;strokeColor=none;fillColor=none;" vertex="1" parent="1">
          <mxGeometry x="1865" y="818" width="30" height="30" as="geometry" />
        </mxCell>
        <mxCell id="wp8ptao_UwGcVqOm8D7a-167" value="fecha" style="ellipse;whiteSpace=wrap;html=1;align=center;fontStyle=4;" vertex="1" parent="1">
          <mxGeometry x="460" y="555" width="60" height="40" as="geometry" />
        </mxCell>
        <mxCell id="wp8ptao_UwGcVqOm8D7a-168" value="cantidad" style="ellipse;whiteSpace=wrap;html=1;align=center;" vertex="1" parent="1">
          <mxGeometry x="520.71" y="600" width="70" height="40" as="geometry" />
        </mxCell>
        <mxCell id="wp8ptao_UwGcVqOm8D7a-169" value="" style="endArrow=none;html=1;rounded=0;entryX=0.5;entryY=0;entryDx=0;entryDy=0;" edge="1" parent="1" source="wp8ptao_UwGcVqOm8D7a-45" target="wp8ptao_UwGcVqOm8D7a-167">
          <mxGeometry width="50" height="50" relative="1" as="geometry">
            <mxPoint x="328" y="548" as="sourcePoint" />
            <mxPoint x="302" y="610" as="targetPoint" />
          </mxGeometry>
        </mxCell>
        <mxCell id="wp8ptao_UwGcVqOm8D7a-170" value="" style="endArrow=none;html=1;rounded=0;entryX=0.5;entryY=0;entryDx=0;entryDy=0;exitX=0.5;exitY=1;exitDx=0;exitDy=0;exitPerimeter=0;" edge="1" parent="1" source="wp8ptao_UwGcVqOm8D7a-45" target="wp8ptao_UwGcVqOm8D7a-168">
          <mxGeometry width="50" height="50" relative="1" as="geometry">
            <mxPoint x="542" y="520" as="sourcePoint" />
            <mxPoint x="500" y="565" as="targetPoint" />
          </mxGeometry>
        </mxCell>
        <mxCell id="wp8ptao_UwGcVqOm8D7a-171" value="fecha" style="ellipse;whiteSpace=wrap;html=1;align=center;fontStyle=4;" vertex="1" parent="1">
          <mxGeometry x="710" y="-130" width="80" height="40" as="geometry" />
        </mxCell>
        <mxCell id="wp8ptao_UwGcVqOm8D7a-172" value="" style="endArrow=none;html=1;rounded=0;entryX=1;entryY=1;entryDx=0;entryDy=0;exitX=0.338;exitY=0.135;exitDx=0;exitDy=0;exitPerimeter=0;" edge="1" parent="1" source="wp8ptao_UwGcVqOm8D7a-65" target="wp8ptao_UwGcVqOm8D7a-171">
          <mxGeometry width="50" height="50" relative="1" as="geometry">
            <mxPoint x="831" y="-59" as="sourcePoint" />
            <mxPoint x="865" y="-107" as="targetPoint" />
          </mxGeometry>
        </mxCell>
      </root>
    </mxGraphModel>
  </diagram>
</mxfile>
